<svg xmlns="http://www.w3.org/2000/svg" class="img-fluid" id="outputsvg" width="16" height="16" viewBox="0 0 12060 12060"><g id="l5IsdhvPBe0FVAvGa6NU7li" fill-opacity="0" style="transform: none;"><g style="transform: none;"><path id="ppnFEZIib" d="M0 6030 l0 -6030 6030 0 6030 0 0 6030 0 6030 -6030 0 -6030 0 0 -6030z m4503 3574 c793 -476 1602 -962 1797 -1080 195 -118 355 -214 356 -214 2 0 693 -415 1536 -922 843 -507 1547 -929 1564 -937 95 -48 712 -426 707 -434 -3 -4 -15 -13 -26 -18 -12 -5 -35 -18 -52 -29 -16 -11 -39 -24 -50 -30 -11 -6 -33 -19 -50 -30 -16 -11 -39 -24 -50 -30 -11 -6 -33 -19 -50 -30 -16 -11 -39 -24 -50 -30 -11 -6 -33 -19 -50 -30 -16 -11 -39 -24 -50 -30 -11 -6 -33 -19 -50 -30 -16 -11 -39 -24 -50 -30 -11 -6 -33 -18 -50 -28 l-30 -19 -12 -186 c-28 -452 -128 -819 -324 -1181 -143 -265 -279 -447 -493 -662 -483 -481 -1085 -758 -1776 -814 -448 -37 -969 73 -1422 301 -78 39 -149 51 -163 28 -4 -5 -17 -15 -28 -20 -12 -5 -35 -18 -52 -29 -16 -11 -39 -24 -50 -30 -11 -6 -33 -19 -50 -30 -16 -11 -39 -24 -50 -30 -11 -6 -33 -19 -50 -30 -16 -11 -39 -24 -50 -30 -11 -6 -33 -19 -50 -30 -16 -11 -39 -24 -50 -30 -11 -6 -33 -19 -50 -30 -16 -11 -39 -24 -50 -30 -11 -6 -33 -19 -50 -30 -16 -11 -39 -24 -50 -30 -11 -6 -33 -19 -50 -30 -16 -11 -39 -24 -50 -30 -11 -6 -33 -19 -50 -30 -16 -11 -39 -24 -50 -30 -11 -6 -33 -19 -50 -30 -16 -11 -39 -24 -50 -30 -11 -6 -33 -19 -50 -30 -16 -11 -39 -24 -50 -30 -11 -6 -33 -19 -50 -30 -16 -11 -39 -24 -50 -30 -11 -6 -33 -19 -50 -30 -16 -11 -39 -24 -50 -30 -11 -6 -33 -19 -50 -30 -16 -11 -39 -24 -50 -30 -11 -6 -33 -19 -50 -30 -16 -11 -39 -24 -50 -30 -11 -6 -33 -19 -50 -30 -16 -11 -39 -24 -50 -30 -11 -6 -33 -19 -50 -30 -16 -11 -39 -24 -50 -30 -11 -6 -33 -19 -50 -30 -16 -11 -39 -24 -50 -30 -11 -6 -33 -19 -50 -30 -16 -11 -39 -24 -50 -30 -11 -6 -33 -19 -50 -30 -16 -11 -39 -24 -50 -30 -11 -6 -33 -19 -50 -30 -16 -11 -39 -24 -50 -30 -11 -6 -33 -19 -50 -30 -16 -11 -39 -24 -50 -30 -11 -6 -33 -19 -50 -30 -16 -11 -39 -24 -50 -30 -11 -6 -33 -19 -50 -30 -16 -11 -39 -24 -50 -30 -11 -6 -33 -19 -50 -30 -16 -11 -39 -24 -50 -30 -11 -6 -33 -19 -50 -30 -16 -11 -39 -24 -50 -30 -11 -6 -35 -19 -52 -30 l-33 -20 0 4450 c0 2448 3 4450 6 4450 3 0 654 -390 1447 -866z"/><path id="pY93iknpk" d="M6869 6859 c-268 -39 -499 -152 -693 -339 -207 -199 -332 -432 -381 -714 -19 -113 -20 -352 0 -472 65 -403 322 -750 690 -931 194 -95 360 -133 586 -133 168 0 260 12 392 51 449 134 782 490 888 949 30 126 36 363 15 510 -31 211 -112 404 -239 575 -206 277 -485 446 -826 501 -93 15 -340 17 -432 3z m390 -326 c487 -97 851 -576 799 -1049 -51 -468 -420 -835 -897 -895 -141 -17 -312 14 -478 87 -147 65 -324 215 -418 355 -156 232 -208 515 -141 763 88 328 328 591 642 705 69 25 138 40 259 55 45 5 150 -4 234 -21z"/></g></g><g id="l2ddyvY92cW00XZ2RAzQ9y4" fill="rgb(73,156,84)" style="transform: none;"><g style="transform: none;"><path id="pCjibrqv9" d="M3020 6019 c0 -4306 1 -4521 18 -4507 9 8 24 18 32 22 8 3 29 15 45 26 17 11 39 24 50 30 11 6 34 19 50 30 17 11 39 24 50 30 11 6 34 19 50 30 17 11 39 24 50 30 11 6 34 19 50 30 17 11 39 24 50 30 11 6 34 19 50 30 17 11 39 24 50 30 11 6 34 19 50 30 17 11 39 24 50 30 11 6 34 19 50 30 17 11 39 24 50 30 11 6 34 19 50 30 17 11 39 24 50 30 11 6 34 19 50 30 17 11 39 24 50 30 11 6 34 19 50 30 17 11 39 24 50 30 11 6 34 19 50 30 17 11 39 24 50 30 11 6 34 19 50 30 17 11 39 24 50 30 11 6 34 19 50 30 17 11 39 24 50 30 11 6 34 19 50 30 17 11 39 24 50 30 11 6 34 19 50 30 17 11 39 24 50 30 11 6 34 19 50 30 17 11 39 24 50 30 11 6 34 19 50 30 17 11 39 24 50 30 11 6 34 19 50 30 17 11 39 24 50 30 11 6 34 19 50 30 17 11 39 24 50 30 11 6 34 19 50 30 17 11 39 24 50 30 11 6 34 19 50 30 17 11 39 24 50 30 11 6 34 19 50 30 17 11 39 24 50 30 11 6 34 19 50 30 17 11 39 24 50 30 11 6 34 19 50 30 17 11 39 24 50 30 11 6 34 19 50 30 17 11 39 24 50 30 11 6 34 19 50 30 17 11 40 24 52 29 11 5 24 15 28 21 4 7 18 9 31 6 20 -5 24 -3 24 18 0 15 -7 27 -19 31 -39 12 -290 185 -396 272 -130 107 -327 306 -414 418 -34 44 -69 89 -78 99 -36 44 -134 198 -186 291 -244 437 -375 1011 -339 1485 22 290 78 543 176 803 141 371 331 667 616 961 420 432 947 707 1553 811 23 3 37 11 37 20 0 8 -4 15 -8 15 -4 0 -167 96 -362 214 -313 189 -3283 1972 -3302 1983 -5 2 -8 -2031 -8 -4518z"/><path id="p1Dnqhfo99" d="M9680 6518 c0 -14 9 -51 21 -84 60 -172 122 -473 134 -650 11 -161 16 -194 30 -194 7 0 15 9 18 20 3 11 16 24 29 30 12 6 37 19 53 30 17 11 39 24 50 30 11 6 34 19 50 30 17 11 39 24 50 30 11 6 34 19 50 30 17 11 39 24 50 30 11 6 34 19 50 30 17 11 39 24 50 30 11 6 34 19 50 30 17 11 39 24 50 30 11 6 34 19 50 30 17 11 40 24 52 29 11 5 23 14 26 18 5 8 -660 414 -757 464 -17 9 -48 26 -68 38 l-38 23 0 -24z"/></g></g><g id="l6ZOrLRAQ6wB7BvaC8mYL8u" fill="rgb(92,149,247)" style="transform: none;"><g style="transform: none;"><path id="p5oteeezR" d="M6530 8315 c-770 -160 -1404 -600 -1833 -1275 -256 -402 -417 -969 -417 -1470 0 -543 168 -1103 462 -1544 92 -137 91 -137 134 -53 15 29 42 79 60 112 18 33 46 87 64 120 17 33 48 92 70 130 21 39 53 100 71 138 17 37 35 67 38 67 4 0 20 29 36 65 15 36 31 65 35 65 3 0 19 29 35 65 15 36 31 65 35 65 4 0 15 20 26 45 10 25 22 45 26 45 4 0 8 8 8 18 0 11 8 29 19 40 10 12 26 42 35 67 10 25 21 45 25 45 5 0 16 20 25 45 10 25 22 45 27 45 5 0 9 9 9 20 0 11 4 20 9 20 5 0 17 20 27 45 9 25 21 45 25 45 5 0 9 9 9 20 0 11 4 20 9 20 4 0 16 20 25 45 10 25 22 45 27 45 5 0 9 9 9 20 0 11 4 20 9 20 5 0 14 14 20 30 5 17 17 38 26 46 8 8 15 24 15 35 0 10 4 19 9 19 5 0 13 10 17 22 3 12 13 28 20 36 8 7 17 25 21 40 3 15 9 29 12 32 4 3 12 39 19 80 43 261 175 505 378 700 228 219 494 332 815 347 217 10 408 -28 595 -116 147 -70 246 -140 363 -259 l104 -105 -5 45 c-4 32 -24 77 -71 154 -36 60 -74 126 -86 147 -82 147 -471 799 -481 807 -4 3 -84 137 -179 297 l-173 293 -200 120 c-109 66 -209 120 -221 119 -12 0 -74 -11 -137 -24z"/><path id="p12KFBdVMe" d="M6995 6584 c-138 -19 -190 -30 -259 -55 -314 -114 -553 -376 -642 -705 -24 -88 -27 -117 -27 -254 0 -135 3 -168 25 -250 50 -185 133 -331 265 -464 395 -399 1023 -404 1432 -12 350 337 407 884 135 1293 -20 31 -66 87 -103 126 -150 159 -325 258 -532 301 -78 16 -242 27 -294 20z"/></g></g><g id="l4hJJKiyhYZNp6a0cSqKx4Y" fill="rgb(74,120,220)" style="transform: none;"><g style="transform: none;"><path id="p2Vs47Tbx" d="M5810 5778 c-41 -49 -49 -62 -44 -69 3 -5 0 -9 -6 -9 -6 0 -8 -4 -5 -10 3 -5 1 -10 -5 -10 -6 0 -8 -4 -5 -10 3 -5 1 -10 -4 -10 -6 0 -11 -6 -11 -13 0 -8 -9 -24 -20 -37 -11 -12 -17 -27 -14 -31 3 -5 0 -9 -6 -9 -6 0 -8 -4 -5 -10 3 -5 2 -10 -3 -10 -6 0 -15 -14 -21 -30 -5 -17 -17 -38 -26 -46 -8 -9 -13 -20 -10 -25 4 -5 2 -9 -3 -9 -6 0 -17 -18 -26 -41 -9 -23 -23 -48 -31 -56 -9 -8 -13 -19 -10 -24 4 -5 2 -9 -4 -9 -5 0 -14 -15 -21 -34 -6 -19 -20 -44 -30 -56 -11 -13 -17 -27 -14 -31 3 -5 1 -9 -5 -9 -5 0 -15 -16 -22 -35 -7 -19 -17 -35 -22 -35 -4 0 -5 -4 -2 -10 3 -5 2 -10 -3 -10 -5 0 -20 -25 -32 -55 -12 -30 -26 -55 -30 -55 -9 0 -25 -40 -22 -52 1 -5 -2 -8 -6 -8 -4 0 -16 -20 -26 -45 -11 -25 -22 -45 -26 -45 -4 0 -20 -29 -35 -65 -16 -36 -32 -65 -35 -65 -4 0 -20 -29 -35 -65 -16 -36 -32 -65 -36 -65 -3 0 -21 -30 -38 -67 -18 -38 -50 -99 -71 -138 -22 -38 -53 -97 -70 -130 -18 -33 -46 -87 -64 -120 -18 -33 -45 -83 -60 -112 -15 -29 -31 -55 -36 -58 -5 -3 -3 -13 5 -23 7 -9 49 -62 93 -117 99 -124 304 -326 437 -431 954 -753 2286 -803 3295 -124 156 106 274 203 416 344 156 157 240 258 349 421 64 96 195 324 195 340 0 3 -479 5 -1065 5 l-1065 0 -97 -26 c-136 -36 -346 -44 -493 -19 -545 91 -968 511 -1055 1049 -16 97 -19 300 -6 379 8 50 8 54 -9 35z"/></g></g><g id="l2e5qUHGg09gSSCjv3brCyj" fill="rgb(165,192,242)" style="transform: none;"><g style="transform: none;"><path id="pS8cqELRr" d="M7020 8135 c0 -4 24 -46 53 -93 30 -48 116 -193 192 -322 76 -129 143 -238 149 -242 6 -4 7 -8 3 -8 -4 0 1 -10 12 -22 11 -11 18 -25 15 -30 -3 -4 -2 -8 3 -8 9 0 60 -78 65 -100 2 -8 8 -19 15 -25 10 -9 297 -491 370 -622 14 -26 37 -65 49 -85 13 -20 25 -43 26 -50 2 -7 8 -17 15 -23 7 -5 13 -16 15 -24 2 -8 11 -23 21 -33 10 -10 16 -22 13 -26 -2 -4 27 -50 66 -102 294 -401 328 -944 86 -1366 -167 -292 -415 -495 -728 -595 l-85 -28 1110 2 1110 2 52 120 c269 626 303 1327 94 1975 l-31 95 -1306 785 c-719 432 -1324 795 -1346 808 -21 13 -38 20 -38 17z"/></g></g></svg>
